<svg width="24" height="24" viewBox="0 0 20 20" fill="none" xmlns="http://www.w3.org/2000/svg"><path fill-rule="evenodd" clip-rule="evenodd" d="M8.3335 5.83325H10.0002V10.6883H14.7016L16.2922 14.159L17.6995 13.7788L18.1342 15.3877L15.3648 16.1359L13.6321 12.3549H8.3335V5.83325Z" fill="#6B24B2"></path><path fill-rule="evenodd" clip-rule="evenodd" d="M8.3335 8.33333C8.3335 7.8731 8.70659 7.5 9.16683 7.5H12.5002V9.16667H9.16683C8.70659 9.16667 8.3335 8.79357 8.3335 8.33333Z" fill="#6B24B2"></path><path d="M9.16667 5.00008C10.0871 5.00008 10.8333 4.25389 10.8333 3.33341C10.8333 2.41294 10.0871 1.66675 9.16667 1.66675C8.24619 1.66675 7.5 2.41294 7.5 3.33341C7.5 4.25389 8.24619 5.00008 9.16667 5.00008Z" fill="#6B24B2"></path><path fill-rule="evenodd" clip-rule="evenodd" d="M6.66683 8.61792C4.72484 9.30431 3.3335 11.1564 3.3335 13.3334C3.3335 16.0948 5.57207 18.3334 8.3335 18.3334C10.811 18.3334 12.8676 16.5315 13.2644 14.1667H11.2162C10.8551 15.4182 9.70119 16.3334 8.3335 16.3334C6.67664 16.3334 5.3335 14.9903 5.3335 13.3334C5.3335 12.2933 5.86284 11.3768 6.66683 10.8386V8.61792Z" fill="#6B24B2"></path></svg>